<?xml version="1.0" standalone="no"?>
<!DOCTYPE svg PUBLIC "-//W3C//DTD SVG 20010904//EN"
 "http://www.w3.org/TR/2001/REC-SVG-20010904/DTD/svg10.dtd">
<svg version="1.0" xmlns="http://www.w3.org/2000/svg"
 width="470.000000pt" height="533.000000pt" viewBox="0 0 470.000000 533.000000"
 preserveAspectRatio="xMidYMid meet">

<g transform="translate(0.000000,533.000000) scale(0.100000,-0.100000)"
fill="#000000" stroke="none">
<path d="M2207 5315 c-243 -41 -459 -161 -571 -318 -107 -150 -148 -286 -150
-497 -1 -179 6 -199 81 -242 62 -35 78 -56 88 -114 9 -57 -14 -108 -75 -164
-42 -39 -50 -52 -50 -82 0 -47 15 -86 45 -118 13 -14 33 -50 45 -80 36 -93 71
-140 103 -140 66 0 150 59 187 131 21 41 46 55 66 38 49 -40 -50 -180 -159
-225 -26 -10 -47 -22 -47 -26 0 -14 117 -82 173 -100 33 -10 117 -24 186 -31
l126 -12 11 -150 c6 -83 14 -202 18 -266 l7 -115 -99 -165 c-145 -244 -143
-240 -214 -270 l-63 -26 -80 18 c-156 34 -367 111 -445 163 -104 69 -175 296
-196 631 -4 61 -11 120 -15 133 -10 26 -40 29 -61 5 -35 -40 -42 -71 -48 -193
l-5 -125 -79 -52 c-134 -88 -130 -80 -127 -234 1 -73 7 -141 12 -151 8 -15 19
-19 47 -16 36 3 37 2 44 -41 12 -69 46 -129 91 -159 34 -23 52 -27 114 -28 71
-2 74 -3 118 -43 53 -49 217 -158 295 -196 l55 -27 0 -151 c0 -170 13 -238 70
-364 38 -83 79 -146 147 -225 26 -31 48 -59 48 -62 0 -12 -162 -230 -217 -293
-95 -109 -154 -127 -275 -84 -101 35 -139 36 -204 7 -32 -15 -82 -45 -111 -67
-40 -31 -56 -38 -69 -31 -29 16 -204 193 -266 269 -189 231 -331 514 -404 799
-47 185 -64 327 -64 522 0 333 67 622 211 918 138 283 345 537 603 738 94 74
126 123 126 195 0 83 -48 141 -118 141 -77 0 -379 -250 -554 -460 -607 -723
-726 -1726 -307 -2570 127 -255 269 -450 470 -645 709 -686 1770 -858 2654
-429 636 308 1086 866 1254 1556 108 441 88 895 -59 1341 -61 183 -156 381
-241 502 -79 111 -304 339 -464 471 -66 55 -203 162 -305 238 -293 221 -409
350 -561 630 -66 121 -109 171 -198 231 -162 107 -375 147 -594 110z m302
-230 c78 -19 168 -65 209 -108 17 -18 60 -81 97 -141 153 -253 295 -413 542
-608 447 -352 583 -486 743 -728 154 -234 263 -519 317 -825 24 -139 24 -519
0 -656 -74 -426 -229 -745 -529 -1092 l-27 -32 -1 46 c0 128 -70 219 -168 219
l-27 0 0 -93 c-1 -102 -22 -167 -73 -220 -110 -117 -356 -121 -650 -11 -105
39 -262 115 -355 171 l-57 35 119 126 c155 165 238 265 316 383 101 150 138
243 166 421 6 43 15 78 20 78 4 0 42 -23 84 -51 101 -68 200 -168 260 -263
l49 -76 23 21 c59 56 67 163 19 258 -53 104 -231 256 -388 332 l-48 23 0 113
c0 171 10 204 86 280 46 46 65 73 70 100 9 49 -5 67 -55 71 -90 7 -199 -56
-241 -137 -37 -74 -42 -115 -50 -431 -9 -324 -22 -446 -55 -511 -80 -156 -854
-988 -967 -1039 -51 -23 -116 -25 -163 -6 -29 12 -35 20 -35 45 0 23 9 37 37
58 97 74 376 413 497 603 61 96 147 274 180 370 52 155 54 227 34 1015 -13
518 -11 548 36 651 95 207 360 267 576 130 l55 -35 3 25 c5 40 -26 118 -64
163 -96 111 -300 141 -488 70 -82 -30 -172 -103 -233 -188 l-53 -73 0 94 c0
170 -43 253 -160 312 -39 19 -96 40 -127 47 -32 7 -62 16 -67 20 -5 4 4 23 19
41 66 78 82 172 45 272 -38 100 -109 141 -237 134 l-76 -4 6 86 c17 269 200
463 488 519 72 14 229 12 298 -4z m-629 -767 l35 -22 -52 -6 c-39 -4 -60 -13
-82 -34 l-30 -29 10 39 c21 76 57 91 119 52z m428 -2220 c-4 -109 -10 -148
-32 -215 -27 -82 -124 -281 -185 -381 l-33 -52 -36 44 c-184 223 -203 435 -52
577 54 51 165 113 250 140 98 32 93 38 88 -113z m436 -1384 c97 -41 166 -97
166 -133 0 -36 -50 -74 -152 -116 -191 -78 -248 -116 -248 -166 0 -26 -2 -26
-72 -32 -159 -11 -420 19 -608 69 -183 49 -417 150 -557 240 -57 36 -65 57
-32 75 39 20 101 1 200 -61 187 -118 319 -135 469 -60 65 33 190 128 349 267
l115 99 140 -72 c78 -40 181 -89 230 -110z"/>
<path d="M2425 4736 c-44 -19 -102 -88 -115 -137 -13 -49 -5 -111 18 -139 29
-33 42 -28 60 24 22 64 56 89 121 90 57 1 94 -21 125 -73 26 -46 26 -133 -1
-169 -19 -25 -25 -27 -90 -24 -90 4 -110 -11 -104 -83 6 -72 53 -105 148 -105
147 2 212 68 221 229 10 182 -59 322 -188 380 -52 24 -149 27 -195 7z"/>
</g>
</svg>
